<svg xmlns="http://www.w3.org/2000/svg" width="28" height="28" viewBox="0 0 28 28" fill="none"><g filter="url(#filter0_i_4071_692)"><path d="M7.41349 14.08L14.0802 7.41337L20.7468 14.08L14.0802 20.7467L7.41349 14.08Z" fill="#3F3986" fill-opacity="0.02"></path><path d="M7.41349 14.08L14.0802 7.41337L20.7468 14.08L14.0802 20.7467L7.41349 14.08Z" fill="url(#paint0_linear_4071_692)" fill-opacity="0.2"></path><path d="M27.4135 6.08004V14.08L14.0802 0.746704H22.0802L27.4135 6.08004Z" fill="#3F3986" fill-opacity="0.02"></path><path d="M27.4135 6.08004V14.08L14.0802 0.746704H22.0802L27.4135 6.08004Z" fill="url(#paint1_linear_4071_692)" fill-opacity="0.2"></path><path d="M27.4135 22.08V14.08L14.0802 27.4134H22.0802L27.4135 22.08Z" fill="#3F3986" fill-opacity="0.02"></path><path d="M27.4135 22.08V14.08L14.0802 27.4134H22.0802L27.4135 22.08Z" fill="url(#paint2_linear_4071_692)" fill-opacity="0.2"></path><path d="M0.746826 22.08V14.08L14.0802 27.4134H6.08016L0.746826 22.08Z" fill="#3F3986" fill-opacity="0.02"></path><path d="M0.746826 22.08V14.08L14.0802 27.4134H6.08016L0.746826 22.08Z" fill="url(#paint3_linear_4071_692)" fill-opacity="0.2"></path><path d="M0.746826 6.08004V14.08L14.0802 0.746704H6.08016L0.746826 6.08004Z" fill="#3F3986" fill-opacity="0.02"></path><path d="M0.746826 6.08004V14.08L14.0802 0.746704H6.08016L0.746826 6.08004Z" fill="url(#paint4_linear_4071_692)" fill-opacity="0.2"></path></g><defs><filter id="filter0_i_4071_692" x="0.746826" y="0.746704" width="26.6667" height="26.6666" filterUnits="userSpaceOnUse" color-interpolation-filters="sRGB"><feGaussianBlur stdDeviation="4.08"></feGaussianBlur></filter><linearGradient id="paint0_linear_4071_692" x1="14.0802" y1="-12.0765" x2="14.0802" y2="27.4134" gradientUnits="userSpaceOnUse"><stop stop-color="#6471B7" offset="100%"></stop><stop offset="0.773658" stop-color="#414490" stop-opacity="0"></stop></linearGradient><linearGradient id="paint1_linear_4071_692" x1="14.0802" y1="-12.0765" x2="14.0802" y2="27.4134" gradientUnits="userSpaceOnUse"><stop stop-color="#6471B7" offset="100%"></stop><stop offset="0.773658" stop-color="#414490" stop-opacity="0"></stop></linearGradient><linearGradient id="paint2_linear_4071_692" x1="14.0802" y1="-12.0765" x2="14.0802" y2="27.4134" gradientUnits="userSpaceOnUse"><stop stop-color="#6471B7" offset="100%"></stop><stop offset="0.773658" stop-color="#414490" stop-opacity="0"></stop></linearGradient><linearGradient id="paint3_linear_4071_692" x1="14.0802" y1="-12.0765" x2="14.0802" y2="27.4134" gradientUnits="userSpaceOnUse"><stop stop-color="#6471B7" offset="100%"></stop><stop offset="0.773658" stop-color="#414490" stop-opacity="0"></stop></linearGradient><linearGradient id="paint4_linear_4071_692" x1="14.0802" y1="-12.0765" x2="14.0802" y2="27.4134" gradientUnits="userSpaceOnUse"><stop stop-color="#6471B7" offset="100%"></stop><stop offset="0.773658" stop-color="#414490" stop-opacity="0"></stop></linearGradient></defs></svg>