<svg xmlns="http://www.w3.org/2000/svg" width="34" height="35" viewBox="0 0 34 35" fill="none"><path d="M8.77344 17.4746L17.0481 0L25.3228 17.4746H8.77344Z" fill="#C46FF8"></path><path d="M25.3228 17.4746L17.0481 34.9492L8.77344 17.4746H25.3228Z" fill="#AD4AFB"></path><path d="M33.5963 8.37554L25.3216 17.4746L17.0469 0L33.5963 8.37554Z" fill="#AD4AFB"></path><path d="M17.0477 0L8.77296 17.4746L0.5 8.37554L17.0477 0Z" fill="#BA49FF"></path><path d="M0.499817 26.5737L8.77278 17.4746L17.0475 34.9492L0.499817 26.5737Z" fill="#BA49FF"></path><path d="M33.5963 26.5737L25.3216 17.4746L17.0469 34.9492L33.5963 26.5737Z" fill="#C46FF8"></path><path d="M0.5 8.37598V26.5742L8.77296 17.4751L0.5 8.37598Z" fill="#BD9DE4"></path><path d="M33.595 8.375L25.3203 17.4741L33.595 26.5732V8.375Z" fill="#BA49FF"></path></svg>