<svg xmlns="http://www.w3.org/2000/svg" width="30" height="37" viewBox="0 0 30 37" fill="none"><path d="M9.5242 8.63445C9.5242 8.99024 9.4957 9.58321 9.15376 9.96865C8.78333 10.3244 8.21343 10.3541 7.87149 10.3541C5.94788 10.3541 3.27952 9.86369 1.46011 10.6209C4.23685 5.56628 9.61598 2.20749 9.58119 2.49714C9.32488 4.49727 9.5242 6.62269 9.5242 8.63445ZM15.2802 31.5827C15.2802 29.1218 17.2178 27.1057 19.6114 27.1057C20.3238 27.1057 20.8937 27.6987 20.8937 28.4399C20.8937 28.9439 20.6372 29.359 20.2383 29.5962C19.8038 29.8674 19.2021 29.7409 18.8136 30.1002C18.5286 30.3374 18.3007 30.7228 18.3007 31.1379C18.3007 31.5827 18.4716 31.9977 18.7566 32.2942C19.2695 32.8279 19.9534 33.1244 20.6942 33.1244C22.6319 33.1244 24.1991 31.4937 24.1991 29.4776C24.1991 27.669 23.0308 26.068 21.4921 25.3564C19.1569 24.1415 15.5839 24.8329 15.3087 21.0277C14.8804 23.0403 13.9356 26.6313 11.3764 26.6313C3.64548 27.1092 0.858972 20.7562 0.320312 14.0305C0.320312 12.5777 1.17516 11.5993 2.25797 11.4511C4.19563 11.4511 6.13329 11.4511 8.07095 11.4511C9.06828 11.4511 9.63818 11.1843 10.0086 10.8285C10.493 10.3541 10.607 9.67216 10.607 8.87164C10.607 6.78634 10.607 3.57961 10.607 2.61573C10.607 1.35693 11.6898 0.599609 13.0861 0.599609C13.9086 0.599609 14.6805 0.628931 15.4796 0.8368C17.2178 1.28153 17.5883 3.11976 17.5883 3.11976C17.5883 3.11976 20.8652 3.71274 22.5179 4.00923C24.0851 4.30572 27.9605 4.57256 28.7013 8.63445C30.4395 18.3 29.3852 27.669 29.2997 27.669C28.0744 36.8009 20.7797 36.3561 20.7797 36.3561C18.1281 36.3561 15.2802 34.5202 15.2802 31.5827ZM23.8287 15.8391C22.8883 15.7502 22.0905 16.1356 21.8055 16.8768C21.4017 17.9272 25.5669 18.8007 25.5669 17.3512C25.4529 16.521 24.769 15.9577 23.8287 15.8391Z" fill="#00A82D"></path></svg>