<svg xmlns="http://www.w3.org/2000/svg" width="24" height="34" viewBox="0 0 24 34" fill="none"><path fill-rule="evenodd" clip-rule="evenodd" d="M11.7251 16.7599C11.7251 13.7034 14.2982 11.2256 17.4722 11.2256C20.6462 11.2256 23.2193 13.7034 23.2193 16.7599C23.2193 19.8164 20.6462 22.2942 17.4722 22.2942C14.2982 22.2942 11.7251 19.8164 11.7251 16.7599Z" fill="#1ABCFE"></path><path fill-rule="evenodd" clip-rule="evenodd" d="M0.231934 27.8282C0.231934 24.7717 2.80499 22.2939 5.97902 22.2939H11.7261V27.8282C11.7261 30.8847 9.15305 33.3625 5.97902 33.3625C2.80499 33.3625 0.231934 30.8847 0.231934 27.8282Z" fill="#0ACF83"></path><path fill-rule="evenodd" clip-rule="evenodd" d="M11.7251 0.156738V11.2253H17.4722C20.6462 11.2253 23.2193 8.74753 23.2193 5.69103C23.2193 2.63452 20.6462 0.156738 17.4722 0.156738H11.7251Z" fill="#FF7262"></path><path fill-rule="evenodd" clip-rule="evenodd" d="M0.231934 5.69103C0.231934 8.74753 2.80499 11.2253 5.97902 11.2253H11.7261V0.156738H5.97902C2.80499 0.156738 0.231934 2.63452 0.231934 5.69103Z" fill="#F24E1E"></path><path fill-rule="evenodd" clip-rule="evenodd" d="M0.231934 16.7594C0.231934 19.8159 2.80499 22.2937 5.97902 22.2937H11.7261V11.2251H5.97902C2.80499 11.2251 0.231934 13.7029 0.231934 16.7594Z" fill="#A259FF"></path></svg>