<svg xmlns="http://www.w3.org/2000/svg" width="15" height="16" viewBox="0 0 15 16" fill="none"><path d="M7.5 0.894531C6.01664 0.894531 4.56659 1.3344 3.33323 2.15851C2.09986 2.98262 1.13856 4.15396 0.570907 5.5244C0.00324965 6.89485 -0.145275 8.40285 0.144114 9.85771C0.433503 11.3126 1.14781 12.6489 2.1967 13.6978C3.2456 14.7467 4.58197 15.461 6.03682 15.7504C7.49168 16.0398 8.99968 15.8913 10.3701 15.3236C11.7406 14.756 12.9119 13.7947 13.736 12.5613C14.5601 11.3279 15 9.87789 15 8.39453C14.9978 6.40608 14.2069 4.49971 12.8009 3.09367C11.3948 1.68762 9.48845 0.896737 7.5 0.894531ZM7.5 13.8806C6.88597 13.162 6.40632 12.3387 6.08403 11.4501H8.91875C8.73534 11.9526 8.50273 12.4357 8.22431 12.8924C8.01007 13.2409 7.76784 13.5714 7.5 13.8806ZM5.66042 9.78342C5.52292 8.8626 5.52292 7.92646 5.66042 7.00564H9.34097C9.47848 7.92646 9.47848 8.8626 9.34097 9.78342H5.66042ZM1.66667 8.39453C1.66665 7.92645 1.72331 7.46009 1.83542 7.00564H3.9757C3.85996 7.92795 3.85996 8.86111 3.9757 9.78342H1.83542C1.72331 9.32896 1.66665 8.86261 1.66667 8.39453ZM7.5 2.90842C8.11404 3.62706 8.59368 4.45038 8.91597 5.33897H6.08264C6.26605 4.83649 6.49866 4.35336 6.77708 3.89661C6.99088 3.54817 7.23265 3.21768 7.5 2.90842ZM11.0229 7.00564H13.1632C13.3882 7.9179 13.3882 8.87116 13.1632 9.78342H11.0243C11.14 8.86111 11.14 7.92795 11.0243 7.00564H11.0229ZM12.4653 5.33897H10.6743C10.4241 4.49896 10.062 3.6964 9.59792 2.95286C10.7883 3.41496 11.7955 4.25269 12.4667 5.33897H12.4653ZM5.40209 2.95286C4.93798 3.6964 4.57594 4.49896 4.3257 5.33897H2.53334C3.20454 4.25269 4.21172 3.41496 5.40209 2.95286ZM2.53334 11.4501H4.3257C4.57594 12.2901 4.93798 13.0927 5.40209 13.8362C4.21172 13.3741 3.20454 12.5364 2.53334 11.4501ZM9.59792 13.8362C10.062 13.0927 10.4241 12.2901 10.6743 11.4501H12.4667C11.7955 12.5364 10.7883 13.3741 9.59792 13.8362Z" fill="white"></path></svg>