<svg xmlns="http://www.w3.org/2000/svg" width="17" height="14" viewBox="0 0 17 14" fill="none"><g clip-path="url(#clip0_4077_899)"><path d="M15.9375 0.894409H0.9375C0.68886 0.894409 0.450403 0.993181 0.274587 1.169C0.0987721 1.34481 0 1.58327 0 1.83191V12.4569C0 12.8713 0.16462 13.2687 0.457646 13.5618C0.750671 13.8548 1.1481 14.0194 1.5625 14.0194H15.3125C15.7269 14.0194 16.1243 13.8548 16.4174 13.5618C16.7104 13.2687 16.875 12.8713 16.875 12.4569V1.83191C16.875 1.58327 16.7762 1.34481 16.6004 1.169C16.4246 0.993181 16.1861 0.894409 15.9375 0.894409ZM13.5273 2.76941L8.4375 7.43503L3.34766 2.76941H13.5273ZM1.875 12.1444V3.96316L7.80391 9.39832C7.97682 9.55687 8.2029 9.64483 8.4375 9.64483C8.6721 9.64483 8.89818 9.55687 9.07109 9.39832L15 3.96316V12.1444H1.875Z" fill="white"></path></g><defs><clipPath id="clip0_4077_899"><rect width="17" height="13" fill="white" transform="translate(0 0.894409)"></rect></clipPath></defs></svg>