<svg xmlns="http://www.w3.org/2000/svg" width="15" height="16" viewBox="0 0 15 16" fill="none"><path d="M7.5 3.99788C6.88516 3.99788 6.28412 4.16473 5.7729 4.47733C5.26168 4.78992 4.86323 5.23423 4.62794 5.75406C4.39265 6.27388 4.33109 6.84589 4.45104 7.39774C4.57099 7.94958 4.86706 8.45649 5.30182 8.85435C5.73658 9.2522 6.2905 9.52315 6.89352 9.63292C7.49655 9.74269 8.12161 9.68635 8.68965 9.47103C9.25769 9.25571 9.7432 8.89108 10.0848 8.42325C10.4264 7.95541 10.6087 7.40539 10.6087 6.84273C10.6078 6.08849 10.2799 5.36539 9.69715 4.83206C9.11436 4.29874 8.32419 3.99874 7.5 3.99788ZM7.5 8.13585C7.22053 8.13585 6.94733 8.06001 6.71495 7.91792C6.48258 7.77583 6.30147 7.57387 6.19452 7.33759C6.08757 7.1013 6.05959 6.8413 6.11411 6.59046C6.16863 6.33962 6.30321 6.10921 6.50083 5.92836C6.69844 5.74752 6.95022 5.62436 7.22433 5.57447C7.49843 5.52457 7.78255 5.55018 8.04075 5.64805C8.29895 5.74592 8.51964 5.91167 8.6749 6.12432C8.83017 6.33697 8.91304 6.58698 8.91304 6.84273C8.91304 7.18569 8.76417 7.5146 8.49917 7.7571C8.23418 7.99961 7.87476 8.13585 7.5 8.13585ZM7.5 0.894409C5.77667 0.896121 4.12445 1.52337 2.90587 2.63852C1.68729 3.75368 1.00187 5.26566 1 6.84273C1 11.8445 6.76804 15.5971 7.01391 15.7542C7.1564 15.8455 7.3261 15.8944 7.5 15.8944C7.6739 15.8944 7.8436 15.8455 7.98609 15.7542C9.07856 15.0174 10.0781 14.1717 10.9662 13.2327C12.9508 11.1469 14 8.93564 14 6.84273C13.9981 5.26566 13.3127 3.75368 12.0941 2.63852C10.8755 1.52337 9.22333 0.896121 7.5 0.894409ZM9.71141 12.1904C9.03777 12.8985 8.29782 13.5514 7.5 14.1417C6.70218 13.5514 5.96223 12.8985 5.28859 12.1904C4.1087 10.94 2.69565 8.99641 2.69565 6.84273C2.69565 5.67669 3.20182 4.5584 4.10281 3.73388C5.0038 2.90936 6.22581 2.44615 7.5 2.44615C8.77419 2.44615 9.9962 2.90936 10.8972 3.73388C11.7982 4.5584 12.3043 5.67669 12.3043 6.84273C12.3043 8.99641 10.8913 10.94 9.71141 12.1904Z" fill="white"></path></svg>