<svg xmlns="http://www.w3.org/2000/svg" width="32" height="31" viewBox="0 0 32 31" fill="none"><path d="M10.5466 12.6334V12.3947C10.5466 11.7896 11.0338 11.2878 11.6616 11.246L16.2352 10.9423L22.56 20.2076V12.0757L20.932 11.8598V11.7464C20.932 11.1342 21.4304 10.629 22.0662 10.5966L26.2277 10.3846V10.9803C26.2277 11.26 26.0186 11.4992 25.7321 11.5474L24.7307 11.7159V24.8853L23.4739 25.3153C22.4239 25.6745 21.255 25.2899 20.6539 24.3877L14.5136 15.1702V23.9677L16.4036 24.3276L16.3773 24.502C16.2948 25.0482 15.8207 25.4614 15.2472 25.4868L10.5466 25.6949C10.4844 25.1075 10.927 24.5819 11.5375 24.5181L12.1559 24.4535V12.7234L10.5466 12.6334Z" fill="black"></path><path fill-rule="evenodd" clip-rule="evenodd" d="M21.6833 0.161911L2.8385 1.44183C1.7097 1.51849 0.834717 2.42126 0.834717 3.50923V21.7429C0.834717 22.7652 1.18845 23.7584 1.84018 24.566L5.90339 29.6015C6.56034 30.4157 7.59418 30.864 8.66376 30.7985L29.5793 29.5177C30.6513 29.452 31.4858 28.597 31.4858 27.5642V6.8343C31.4858 6.19536 31.1615 5.59664 30.617 5.23039L23.9959 0.777161C23.3211 0.323324 22.5047 0.10612 21.6833 0.161911ZM3.77297 3.79365C3.51087 3.60061 3.63561 3.19845 3.96486 3.17496L21.81 1.90165C22.3786 1.86108 22.9436 2.01683 23.4034 2.34091L26.9839 4.86444C27.1198 4.96025 27.0561 5.16707 26.8878 5.17618L7.98981 6.19862C7.41789 6.22956 6.85338 6.06242 6.39865 5.7275L3.77297 3.79365ZM7.10342 9.4039C7.10342 8.79315 7.5994 8.28866 8.23364 8.2543L28.2141 7.17182C28.8323 7.13833 29.3526 7.61122 29.3526 8.20646V26.1564C29.3526 26.766 28.8584 27.27 28.2254 27.3058L8.3714 28.4296C7.6835 28.4685 7.10342 27.9427 7.10342 27.2802V9.4039Z" fill="black"></path></svg>