<svg xmlns="http://www.w3.org/2000/svg" width="28" height="28" viewBox="0 0 28 28" fill="none"><path d="M5.08008 0.579834C2.5948 0.579834 0.580078 2.59455 0.580078 5.07983V8.45483C0.580078 10.9401 2.5948 12.9548 5.08008 12.9548H8.45508C10.9404 12.9548 12.9551 10.9401 12.9551 8.45483V5.07983C12.9551 2.59455 10.9404 0.579834 8.45508 0.579834H5.08008Z" fill="white"></path><path d="M19.7051 0.579834C17.2198 0.579834 15.2051 2.59455 15.2051 5.07983V8.45483C15.2051 10.9401 17.2198 12.9548 19.7051 12.9548H23.0801C25.5654 12.9548 27.5801 10.9401 27.5801 8.45483V5.07983C27.5801 2.59455 25.5654 0.579834 23.0801 0.579834H19.7051Z" fill="white"></path><path d="M5.08008 15.2048C2.5948 15.2048 0.580078 17.2196 0.580078 19.7048V23.0798C0.580078 25.5651 2.5948 27.5798 5.08008 27.5798H8.45508C10.9404 27.5798 12.9551 25.5651 12.9551 23.0798V19.7048C12.9551 17.2196 10.9404 15.2048 8.45508 15.2048H5.08008Z" fill="white"></path><path d="M22.5176 16.3298C22.5176 15.7085 22.0139 15.2048 21.3926 15.2048C20.7713 15.2048 20.2676 15.7085 20.2676 16.3298V20.2673H16.3301C15.7088 20.2673 15.2051 20.771 15.2051 21.3923C15.2051 22.0137 15.7088 22.5173 16.3301 22.5173H20.2676V26.4548C20.2676 27.0762 20.7713 27.5798 21.3926 27.5798C22.0139 27.5798 22.5176 27.0762 22.5176 26.4548V22.5173H26.4551C27.0764 22.5173 27.5801 22.0137 27.5801 21.3923C27.5801 20.771 27.0764 20.2673 26.4551 20.2673H22.5176V16.3298Z" fill="white"></path></svg>