<svg xmlns="http://www.w3.org/2000/svg" width="14" height="14" viewBox="0 0 14 14" fill="none"><path d="M13.1926 9.07297L10.023 7.65208L10.0109 7.64669C9.80486 7.55787 9.57985 7.52211 9.35645 7.54269C9.13303 7.56327 8.91835 7.63952 8.73201 7.76448C8.70589 7.78197 8.68073 7.80084 8.65663 7.82102L7.15496 9.09989C6.27994 8.62536 5.37598 7.72881 4.90078 6.86456L6.18369 5.33933C6.20431 5.31472 6.22342 5.28887 6.2409 5.26193C6.36259 5.07626 6.43646 4.86338 6.45596 4.64225C6.47545 4.42112 6.43996 4.19859 6.35264 3.9945C6.35056 3.99059 6.34876 3.98654 6.34725 3.98238L4.92703 0.807414C4.81045 0.541895 4.61149 0.320962 4.35959 0.177312C4.10768 0.0336622 3.81623 -0.0250724 3.52835 0.0098008C2.55127 0.138155 1.65432 0.617786 1.00502 1.35912C0.355724 2.10045 -0.00152226 3.05278 4.87592e-06 4.03825C4.87592e-06 9.53134 4.46866 14 9.96175 14C10.9472 14.0015 11.8996 13.6443 12.6409 12.995C13.3822 12.3457 13.8618 11.4487 13.9902 10.4717C14.0251 10.1838 13.9663 9.89231 13.8227 9.64041C13.679 9.38851 13.4581 9.18955 13.1926 9.07297ZM9.96175 12.3846C7.74899 12.3819 5.62762 11.5017 4.06296 9.93704C2.4983 8.37238 1.61809 6.25101 1.61542 4.03825C1.61388 3.48059 1.8032 2.93919 2.15193 2.50402C2.50066 2.06884 2.98779 1.7661 3.53239 1.64608L4.79914 4.47307L3.5095 6.00906C3.48866 6.0339 3.46932 6.05997 3.45161 6.08714C3.3245 6.28136 3.24977 6.50515 3.23467 6.73678C3.21958 6.96841 3.26463 7.20001 3.36546 7.40909C3.99951 8.70681 5.30598 10.0045 6.61716 10.6399C6.82764 10.7397 7.0604 10.7832 7.2927 10.7661C7.525 10.749 7.74889 10.6719 7.94248 10.5423C7.96851 10.5248 7.99345 10.5057 8.01719 10.4851L9.52693 9.20153L12.3539 10.4676C12.2339 11.0122 11.9312 11.4993 11.496 11.8481C11.0608 12.1968 10.5194 12.3861 9.96175 12.3846Z" fill="white"></path></svg>