<svg xmlns="http://www.w3.org/2000/svg" width="26" height="27" viewBox="0 0 26 27" fill="none"><path d="M23.0811 0.579834H3.08105C2.41801 0.579834 1.78213 0.843226 1.31329 1.31207C0.844447 1.78091 0.581055 2.41679 0.581055 3.07983V10.0798C0.581055 16.8661 3.87105 20.9823 6.63105 23.2411C9.5948 25.6648 12.5611 26.4911 12.6861 26.5273C12.9447 26.5973 13.2174 26.5973 13.4761 26.5273C13.6011 26.4923 16.5673 25.6648 19.5311 23.2411C22.2911 20.9823 25.5811 16.8661 25.5811 10.0798V3.07983C25.5811 2.41679 25.3177 1.78091 24.8488 1.31207C24.38 0.843226 23.7441 0.579834 23.0811 0.579834ZM22.5811 10.0798C22.5811 14.5436 20.9448 18.1661 17.7173 20.8486C16.3339 21.9901 14.766 22.8876 13.0811 23.5023C11.3959 22.8879 9.82803 21.9904 8.44481 20.8486C5.21731 18.1661 3.58105 14.5436 3.58105 10.0798V3.57983H22.5811V10.0798ZM7.0198 14.1411C6.88028 14.0016 6.76959 13.8359 6.69408 13.6536C6.61857 13.4713 6.5797 13.2759 6.5797 13.0786C6.5797 12.8813 6.61857 12.6859 6.69408 12.5036C6.76959 12.3213 6.88028 12.1556 7.0198 12.0161C7.15933 11.8766 7.32498 11.7659 7.50728 11.6904C7.68959 11.6148 7.88498 11.576 8.0823 11.576C8.27963 11.576 8.47502 11.6148 8.65733 11.6904C8.83963 11.7659 9.00528 11.8766 9.1448 12.0161L11.0811 13.9548L17.0198 8.01483C17.3016 7.73304 17.6838 7.57473 18.0823 7.57473C18.4808 7.57473 18.863 7.73304 19.1448 8.01483C19.4266 8.29663 19.5849 8.67882 19.5849 9.07733C19.5849 9.47585 19.4266 9.85804 19.1448 10.1398L12.1448 17.1398C12.0054 17.2797 11.8399 17.3906 11.6575 17.4663C11.4752 17.542 11.2797 17.581 11.0823 17.581C10.8849 17.581 10.6894 17.542 10.5071 17.4663C10.3247 17.3906 10.1592 17.2797 10.0198 17.1398L7.0198 14.1411Z" fill="white"></path></svg>