<svg xmlns="http://www.w3.org/2000/svg" width="34" height="34" viewBox="0 0 34 34" fill="none"><path d="M30.703 15.4824C32.4662 15.4824 33.8956 14.053 33.8956 12.2898C33.8956 10.5266 32.4661 9.09722 30.7029 9.09722C28.9396 9.09722 27.51 10.5267 27.51 12.29V15.4824H30.703ZM21.7629 15.4824C23.5262 15.4824 24.9557 14.0529 24.9557 12.2896V3.35005C24.9557 1.5867 23.5262 0.157227 21.7629 0.157227C19.9995 0.157227 18.5701 1.5867 18.5701 3.35005V12.2896C18.5701 14.0529 19.9995 15.4824 21.7629 15.4824Z" fill="#2EB67D"></path><path d="M3.88047 18.0372C2.11725 18.0372 0.687883 19.4665 0.687883 21.2297C0.687883 22.9929 2.11737 24.4223 3.88058 24.4223C5.64393 24.4223 7.07353 22.9928 7.07353 21.2295V18.0372H3.88047ZM12.8206 18.0372C11.0573 18.0372 9.62778 19.4666 9.62778 21.23V30.1695C9.62778 31.9328 11.0573 33.3623 12.8206 33.3623C14.584 33.3623 16.0134 31.9328 16.0134 30.1695V21.23C16.0134 19.4666 14.584 18.0372 12.8206 18.0372Z" fill="#E01E5A"></path><path d="M18.5703 30.1703C18.5703 31.9335 19.9996 33.3628 21.7628 33.3628C23.526 33.3628 24.9554 31.9333 24.9554 30.1701C24.9554 28.4067 23.5259 26.9771 21.7625 26.9771L18.5703 26.9771L18.5703 30.1703ZM18.5703 21.23C18.5703 22.9933 19.9998 24.4228 21.7631 24.4228L30.7024 24.4228C32.4658 24.4228 33.8953 22.9933 33.8953 21.23C33.8953 19.4666 32.4658 18.0371 30.7024 18.0371L21.7631 18.0371C19.9998 18.0371 18.5703 19.4666 18.5703 21.23Z" fill="#ECB22E"></path><path d="M16.0142 3.34927C16.0142 1.58607 14.5849 0.156722 12.8217 0.156722C11.0585 0.156722 9.62911 1.58623 9.62911 3.34942C9.62911 5.11279 11.0586 6.54243 12.822 6.54243L16.0142 6.54243L16.0142 3.34927ZM16.0142 12.2896C16.0142 10.5262 14.5847 9.09671 12.8214 9.09671L3.88206 9.09671C2.1187 9.09671 0.689209 10.5262 0.689209 12.2896C0.689209 14.0529 2.1187 15.4824 3.88206 15.4824L12.8214 15.4824C14.5847 15.4824 16.0142 14.0529 16.0142 12.2896Z" fill="#36C5F0"></path></svg>