<svg xmlns="http://www.w3.org/2000/svg" width="28" height="28" viewBox="0 0 28 28" fill="none"><g filter="url(#filter0_i_4071_742)"><path d="M14.0799 13.8681H20.7466L27.4132 7.20146V0.53479H20.7466L14.0799 7.20146V13.8681Z" fill="#412D8D" fill-opacity="0.02"></path><path d="M14.0799 13.8681H20.7466L27.4132 7.20146V0.53479H20.7466L14.0799 7.20146V13.8681Z" fill="url(#paint0_linear_4071_742)" fill-opacity="0.2"></path><path d="M14.0799 27.2015H20.7466L27.4132 20.5348V13.8681H20.7466L14.0799 20.5348V27.2015Z" fill="#412D8D" fill-opacity="0.02"></path><path d="M14.0799 27.2015H20.7466L27.4132 20.5348V13.8681H20.7466L14.0799 20.5348V27.2015Z" fill="url(#paint1_linear_4071_742)" fill-opacity="0.2"></path><path d="M0.746582 27.2015H7.41325L14.0799 20.5348V13.8681H7.41325L0.746582 20.5348V27.2015Z" fill="#412D8D" fill-opacity="0.02"></path><path d="M0.746582 27.2015H7.41325L14.0799 20.5348V13.8681H7.41325L0.746582 20.5348V27.2015Z" fill="url(#paint2_linear_4071_742)" fill-opacity="0.2"></path><path d="M0.746582 13.8681H7.41325L14.0799 7.20146V0.53479H7.41325L0.746582 7.20146V13.8681Z" fill="#412D8D" fill-opacity="0.02"></path><path d="M0.746582 13.8681H7.41325L14.0799 7.20146V0.53479H7.41325L0.746582 7.20146V13.8681Z" fill="url(#paint3_linear_4071_742)" fill-opacity="0.2"></path></g><defs><filter id="filter0_i_4071_742" x="0.746582" y="0.53479" width="26.6667" height="26.6666" filterUnits="userSpaceOnUse" color-interpolation-filters="sRGB"><feGaussianBlur stdDeviation="4.08"></feGaussianBlur></filter><linearGradient id="paint0_linear_4071_742" x1="14.0799" y1="-12.2884" x2="14.0799" y2="27.2015" gradientUnits="userSpaceOnUse"><stop stop-color="#6B4D90" offset="100%"></stop><stop offset="0.773658" stop-color="white" stop-opacity="0"></stop></linearGradient><linearGradient id="paint1_linear_4071_742" x1="14.0799" y1="-12.2884" x2="14.0799" y2="27.2015" gradientUnits="userSpaceOnUse"><stop stop-color="#6B4D90" offset="100%"></stop><stop offset="0.773658" stop-color="white" stop-opacity="0"></stop></linearGradient><linearGradient id="paint2_linear_4071_742" x1="14.0799" y1="-12.2884" x2="14.0799" y2="27.2015" gradientUnits="userSpaceOnUse"><stop stop-color="#6B4D90" offset="100%"></stop><stop offset="0.773658" stop-color="white" stop-opacity="0"></stop></linearGradient><linearGradient id="paint3_linear_4071_742" x1="14.0799" y1="-12.2884" x2="14.0799" y2="27.2015" gradientUnits="userSpaceOnUse"><stop stop-color="#6B4D90" offset="100%"></stop><stop offset="0.773658" stop-color="white" stop-opacity="0"></stop></linearGradient></defs></svg>