<svg xmlns="http://www.w3.org/2000/svg" width="32" height="32" viewBox="0 0 32 32" fill="none"><path d="M19.0954 19.0023C17.0159 19.7849 14.6856 19.7863 12.6061 19.0028C11.8226 16.9254 11.8224 14.5955 12.6049 12.5179C14.6839 11.734 17.0165 11.7338 19.0955 12.5177C19.8787 14.5948 19.8784 16.9252 19.0954 19.0023ZM30.973 13.2055H22.0214L28.3507 6.87947C27.3574 5.48494 26.1311 4.25992 24.7357 3.26713L18.4059 9.59318V0.646935C16.7165 0.362915 14.984 0.363347 13.2946 0.646935V9.59318L6.96477 3.26713C5.56979 4.25925 4.34307 5.48595 3.34966 6.87947L9.67999 13.2055H0.728485C0.507525 14.9445 0.435735 16.5788 0.728485 18.3142H9.68011L3.34978 24.6402C4.34559 26.0368 5.56732 27.2578 6.96477 28.2531L13.2946 21.9265V30.8732C14.9842 31.1562 16.7162 31.1564 18.4058 30.8732V21.9265L24.7362 28.2531C26.1322 27.2593 27.3563 26.0353 28.3507 24.6402L22.0204 18.3142H30.973C31.2571 16.6273 31.2571 14.8924 30.973 13.2055Z" fill="#F4F7FF"></path></svg>