<svg xmlns="http://www.w3.org/2000/svg" width="31" height="31" viewBox="0 0 31 31" fill="none"><path d="M18.8835 18.7216C16.804 19.5041 14.4737 19.5055 12.3942 18.722C11.6107 16.6447 11.6105 14.3148 12.393 12.2371C14.472 11.4532 16.8046 11.4531 18.8836 12.237C19.6668 14.314 19.6665 16.6445 18.8835 18.7216ZM30.7611 12.9247H21.8094L28.1388 6.5987C27.1455 5.20417 25.9192 3.97916 24.5238 2.98637L18.194 9.31241V0.366174C16.5046 0.0821529 14.7721 0.0825856 13.0827 0.366174V9.31241L6.75285 2.98637C5.35787 3.97849 4.13115 5.20519 3.13774 6.5987L9.46807 12.9247H0.516571C0.295611 14.6637 0.223821 16.298 0.516571 18.0334H9.46819L3.13786 24.3595C4.13367 25.7561 5.3554 26.9771 6.75285 27.9723L13.0827 21.6458V30.5925C14.7723 30.8754 16.5043 30.8756 18.1939 30.5925V21.6458L24.5243 27.9723C25.9202 26.9785 27.1444 25.7545 28.1388 24.3595L21.8085 18.0334H30.7611C31.0452 16.3465 31.0452 14.6116 30.7611 12.9247Z" fill="#FF4A00"></path></svg>