<svg xmlns="http://www.w3.org/2000/svg" width="18" height="20" viewBox="0 0 18 20" fill="none"><path d="M16.6096 8.81234L2.18753 0.560626C1.97728 0.438021 1.73826 0.373419 1.49488 0.373419C1.25149 0.373419 1.01247 0.438021 0.802219 0.560626C0.595075 0.679401 0.423213 0.851087 0.304224 1.05811C0.185236 1.26513 0.123395 1.50005 0.125032 1.73883V18.2612C0.12435 18.4997 0.186999 18.7341 0.306579 18.9405C0.426158 19.1469 0.598382 19.3179 0.805656 19.4359C1.0159 19.5585 1.25493 19.6231 1.49831 19.6231C1.7417 19.6231 1.98072 19.5585 2.19097 19.4359L16.6096 11.1859C16.8225 11.0692 17.0002 10.8974 17.1239 10.6884C17.2476 10.4795 17.3129 10.2411 17.3129 9.99828C17.3129 9.75544 17.2476 9.51707 17.1239 9.30813C17.0002 9.09918 16.8225 8.92735 16.6096 8.81063V8.81234ZM9.75003 10.972L11.376 12.5979L3.7705 16.9515L9.75003 10.972ZM3.76878 3.04766L11.3768 7.40211L9.75003 9.02805L3.76878 3.04766ZM12.6126 11.8906L10.722 10L12.6126 8.10938L15.9152 10L12.6126 11.8906Z" fill="white"></path></svg>