<svg xmlns="http://www.w3.org/2000/svg" width="19" height="20" viewBox="0 0 19 20" fill="none"><path d="M10.02 2.57813C10.2107 1.83967 10.6415 1.1856 11.2447 0.718862C11.8479 0.252126 12.5891 -0.000764013 13.3518 1.73389e-06H13.4378C13.6201 1.73389e-06 13.795 0.0724346 13.9239 0.201366C14.0528 0.330297 14.1253 0.505165 14.1253 0.687502C14.1253 0.869838 14.0528 1.04471 13.9239 1.17364C13.795 1.30257 13.6201 1.375 13.4378 1.375H13.3518C12.8945 1.37496 12.4502 1.52689 12.0887 1.8069C11.7272 2.08691 11.4689 2.47912 11.3546 2.92188C11.309 3.09852 11.1952 3.24981 11.038 3.34248C10.8809 3.43515 10.6934 3.4616 10.5167 3.41602C10.3401 3.37043 10.1888 3.25655 10.0961 3.09941C10.0035 2.94228 9.97701 2.75477 10.0226 2.57813H10.02ZM18.1901 14.5741C18.1385 14.4563 18.0552 14.3552 17.9495 14.282C16.4911 13.2799 16.1878 11.5706 16.1878 10.3125C16.1878 8.79399 17.3453 7.47141 18.0354 6.81742C18.1033 6.75318 18.1573 6.67576 18.1943 6.58992C18.2312 6.50407 18.2503 6.41159 18.2503 6.31813C18.2503 6.22467 18.2312 6.13219 18.1943 6.04634C18.1573 5.96049 18.1033 5.88308 18.0354 5.81883C16.9457 4.79016 15.141 4.125 13.4378 4.125C12.2142 4.12609 11.0183 4.48876 10.0003 5.16742C8.8127 4.37109 7.38478 4.01346 5.96207 4.15603C4.53936 4.2986 3.21079 4.93246 2.20486 5.9486C1.6035 6.56253 1.13166 7.29105 0.817361 8.0909C0.503061 8.89075 0.352715 9.7456 0.375253 10.6047C0.408989 12.0548 0.731423 13.4835 1.32371 14.8076C1.916 16.1316 2.76625 17.3242 3.82478 18.3159C4.46227 18.9182 5.30676 19.2526 6.18377 19.25H13.7188C14.1876 19.2509 14.6517 19.1555 15.0822 18.9697C15.5126 18.7838 15.9003 18.5116 16.2213 18.1698C16.8158 17.53 17.33 16.82 17.7527 16.0557C18.356 14.9531 18.2786 14.7813 18.1901 14.5741Z" fill="white"></path></svg>