<svg xmlns="http://www.w3.org/2000/svg" width="183" height="30" viewBox="0 0 183 30" fill="none"><path d="M10.7291 18.8242L0.850913 28.7278C0.536553 29.043 0.759777 29.5809 1.20492 29.5809L12.4324 29.5809C12.5688 29.5809 12.6993 29.5251 12.7936 29.4266L22.8991 18.864C22.9244 18.8376 22.9472 18.8077 22.9661 18.7763C24.8313 15.6726 24.7448 13.9456 22.9655 10.9537C22.947 10.9225 22.9246 10.8928 22.8997 10.8664L12.794 0.156853C12.6995 0.0567455 12.568 5.72205e-06 12.4303 5.72205e-06L1.19328 5.72205e-06C0.749797 5.72205e-06 0.525832 0.534512 0.836847 0.850657L10.7291 10.9061C14.0092 14.0098 14.0672 15.7194 10.7291 18.8242Z" fill="#F4F7FF"></path><path d="M40.2838 18.8242L50.3046 28.7252C50.6225 29.0393 50.4001 29.5809 49.9532 29.5809L38.5502 29.5809C38.415 29.5809 38.2856 29.5262 38.1914 29.4292L27.9347 18.8639C27.9091 18.8375 27.886 18.8077 27.8669 18.7763C25.9742 15.6726 26.062 13.9456 27.8674 10.9537C27.8862 10.9225 27.9089 10.8928 27.9341 10.8665L38.1911 0.154211C38.2854 0.0557098 38.4158 5.72205e-06 38.5522 5.72205e-06L49.965 5.72205e-06C50.4103 5.72205e-06 50.6335 0.538139 50.3189 0.853249L40.2838 10.9061C36.9554 14.0098 36.8966 15.7194 40.2838 18.8242Z" fill="#F4F7FF"></path><path d="M97.0907 25.7904C94.9067 25.7904 93.0206 25.3466 91.4324 24.4588C89.8535 23.5618 88.6387 22.2949 87.7878 20.658C86.9369 19.012 86.5115 17.0746 86.5115 14.8459C86.5115 12.6542 86.9369 10.7307 87.7878 9.07543C88.6481 7.41086 89.8488 6.1162 91.3898 5.19144C92.9308 4.25744 94.7413 3.79044 96.8212 3.79044C98.1637 3.79044 99.4306 4.00313 100.622 4.42852C101.822 4.84466 102.881 5.49199 103.798 6.37051C104.725 7.24903 105.453 8.36799 105.982 9.72738C106.512 11.0775 106.776 12.6866 106.776 14.5546V16.0943H88.9223V12.7097H101.856C101.846 11.748 101.633 10.8926 101.217 10.1435C100.801 9.38522 100.22 8.78875 99.4731 8.35412C98.7357 7.91948 97.8753 7.70216 96.8921 7.70216C95.8427 7.70216 94.9209 7.95185 94.1268 8.45122C93.3326 8.94134 92.7134 9.58867 92.269 10.3932C91.8342 11.1885 91.612 12.0624 91.6025 13.0149V15.9695C91.6025 17.2087 91.8342 18.2722 92.2974 19.1599C92.7607 20.0384 93.4083 20.7135 94.2402 21.1851C95.0722 21.6475 96.046 21.8787 97.1616 21.8787C97.9084 21.8787 98.5844 21.777 99.1895 21.5735C99.7945 21.3608 100.319 21.051 100.764 20.6442C101.208 20.2373 101.544 19.7333 101.77 19.1322L106.564 19.6593C106.261 20.8985 105.684 21.9804 104.834 22.9052C103.992 23.8207 102.914 24.5328 101.6 25.0414C100.286 25.5408 98.7829 25.7904 97.0907 25.7904Z" fill="#F4F7FF"></path><path d="M162.682 17.7904L157.469 25.4782C157.379 25.611 157.474 25.7904 157.635 25.7904L163.543 25.7904C163.611 25.7904 163.674 25.7562 163.711 25.6995L168.845 17.8061C168.852 17.7957 168.858 17.7844 168.863 17.7729C169.816 15.447 169.772 14.161 168.862 11.9189C168.858 11.9075 168.852 11.8963 168.845 11.886L163.711 3.88244C163.674 3.82511 163.611 3.79044 163.542 3.79044L157.632 3.79044C157.472 3.79044 157.377 3.96874 157.465 4.10163L162.682 11.9015C164.341 14.2099 164.37 15.4813 162.682 17.7904Z" fill="#F4F7FF"></path><path d="M177.627 17.7904L182.916 25.4771C183.007 25.6098 182.912 25.7904 182.751 25.7904L176.751 25.7904C176.684 25.7904 176.621 25.7567 176.584 25.7006L171.373 17.8062C171.366 17.7957 171.36 17.7843 171.356 17.7727C170.388 15.447 170.433 14.161 171.356 11.919C171.36 11.9076 171.366 11.8963 171.373 11.8859L176.584 3.88132C176.621 3.82463 176.684 3.79044 176.752 3.79044L182.754 3.79044C182.915 3.79044 183.01 3.96996 182.92 4.10275L177.627 11.9015C175.944 14.2099 175.914 15.4813 177.627 17.7904Z" fill="#F4F7FF"></path><path d="M112.382 17.7904L107.168 25.4782C107.078 25.611 107.173 25.7904 107.334 25.7904L113.242 25.7904C113.31 25.7904 113.373 25.7562 113.41 25.6995L118.544 17.8061C118.551 17.7957 118.557 17.7844 118.562 17.7729C119.515 15.447 119.471 14.161 118.562 11.9189C118.557 11.9075 118.551 11.8963 118.545 11.886L113.41 3.88244C113.373 3.82511 113.31 3.79044 113.242 3.79044L107.331 3.79044C107.171 3.79044 107.076 3.96874 107.165 4.10163L112.382 11.9015C114.04 14.2099 114.07 15.4813 112.382 17.7904Z" fill="#F4F7FF"></path><path d="M127.326 17.7904L132.615 25.4771C132.707 25.6098 132.612 25.7904 132.451 25.7904L126.45 25.7904C126.383 25.7904 126.32 25.7567 126.283 25.7006L121.073 17.8062C121.066 17.7957 121.06 17.7843 121.055 17.7727C120.088 15.447 120.133 14.161 121.055 11.919C121.06 11.9076 121.066 11.8963 121.073 11.8859L126.283 3.88132C126.32 3.82463 126.383 3.79044 126.451 3.79044L132.454 3.79044C132.614 3.79044 132.709 3.96996 132.619 4.10275L127.326 11.9015C125.643 14.2099 125.613 15.4813 127.326 17.7904Z" fill="#F4F7FF"></path><path d="M68.3697 13.0655V25.7904H63.1707V4.07321H68.1399V7.76344H68.3984C68.9059 6.54751 69.715 5.58135 70.8256 4.86499C71.9459 4.14862 73.3294 3.79044 74.9763 3.79044C76.4986 3.79044 77.8247 4.11092 78.9545 4.75187C80.0939 5.39283 80.9748 6.32128 81.5972 7.53722C82.2291 8.75316 82.5403 10.2283 82.5307 11.9627V25.7904H77.3316V12.7544C77.3316 11.3029 76.9486 10.167 76.1827 9.34699C75.4263 8.52694 74.3778 8.11691 73.0374 8.11691C72.1278 8.11691 71.3187 8.31486 70.6102 8.71074C69.9112 9.0972 69.3607 9.65804 68.9586 10.3933C68.566 11.1285 68.3697 12.0192 68.3697 13.0655Z" fill="#F4F7FF"></path><path d="M149.164 16.5154V3.79044H154.363V25.5077H149.394V21.8174H149.135C148.628 23.0334 147.818 23.9995 146.708 24.7159C145.588 25.4323 144.204 25.7904 142.557 25.7904C141.035 25.7904 139.709 25.47 138.579 24.829C137.44 24.188 136.559 23.2596 135.936 22.0436C135.304 20.8277 134.993 19.3526 135.003 17.6182V3.79044H140.202V16.8264C140.202 18.278 140.585 19.4138 141.351 20.2339C142.107 21.0539 143.156 21.464 144.496 21.464C145.406 21.464 146.215 21.266 146.923 20.8701C147.622 20.4837 148.173 19.9228 148.575 19.1876C148.967 18.4524 149.164 17.5616 149.164 16.5154Z" fill="#F4F7FF"></path></svg>