<svg xmlns="http://www.w3.org/2000/svg" width="104" height="16" viewBox="0 0 104 16" fill="none"><path d="M5.80327 10.1818L0.850913 15.1469C0.536553 15.4621 0.759777 16 1.20492 16L6.62646 16C6.76291 16 6.89342 15.9442 6.98775 15.8456L12.3684 10.2216C12.3937 10.1952 12.4165 10.1654 12.4352 10.134C13.4261 8.47651 13.3804 7.54441 12.4347 5.94647C12.4162 5.91525 12.3939 5.88568 12.369 5.85929L6.98808 0.156847C6.89362 0.0567389 6.76206 0 6.62442 0L1.19328 0C0.749797 0 0.525832 0.534505 0.836847 0.85065L5.80327 5.89899C7.57743 7.57778 7.6088 8.50246 5.80327 10.1818Z" fill="#F4F7FF"></path><path d="M21.7891 10.1818L26.8117 15.1443C27.1296 15.4584 26.9072 16 26.4603 16L20.9485 16C20.8134 16 20.6839 15.9453 20.5898 15.8483L15.1273 10.2215C15.1017 10.1951 15.0787 10.1654 15.0596 10.134C14.0542 8.47651 14.1005 7.54441 15.0601 5.94648C15.0789 5.91525 15.1015 5.88572 15.1267 5.85941L20.5894 0.154204C20.6837 0.0557032 20.8142 0 20.9506 0L26.4721 0C26.9174 0 27.1405 0.538133 26.826 0.853242L21.7891 5.89899C19.9889 7.57778 19.957 8.50246 21.7891 10.1818Z" fill="#F4F7FF"></path><path d="M57.8199 14C56.6518 14 55.6431 13.7579 54.7936 13.2736C53.9491 12.7844 53.2993 12.0933 52.8443 11.2005C52.3892 10.3026 52.1616 9.2459 52.1616 8.03026C52.1616 6.8348 52.3892 5.78562 52.8443 4.88272C53.3044 3.97478 53.9466 3.2686 54.7708 2.76419C55.595 2.25473 56.5633 2 57.6758 2C58.3938 2 59.0714 2.11602 59.7085 2.34804C60.3507 2.57503 60.917 2.92812 61.4075 3.40731C61.9031 3.88651 62.2924 4.49685 62.5756 5.23834C62.8587 5.97478 63.0003 6.85246 63.0003 7.87137V8.71122H53.451V6.86507H60.3684C60.3633 6.34048 60.2496 5.8739 60.0271 5.46532C59.8046 5.0517 59.4936 4.72636 59.0941 4.48928C58.6997 4.25221 58.2396 4.13367 57.7137 4.13367C57.1524 4.13367 56.6594 4.26986 56.2347 4.54224C55.8099 4.80958 55.4787 5.16267 55.2411 5.60151C55.0085 6.03531 54.8896 6.51198 54.8846 7.03153V8.64313C54.8846 9.31904 55.0085 9.89912 55.2562 10.3834C55.504 10.8625 55.8504 11.2308 56.2953 11.488C56.7403 11.7402 57.2611 11.8663 57.8578 11.8663C58.2573 11.8663 58.6188 11.8108 58.9425 11.6999C59.2661 11.5839 59.5467 11.4149 59.7844 11.1929C60.022 10.971 60.2015 10.6961 60.3229 10.3682L62.8866 10.6557C62.7247 11.3317 62.4163 11.9218 61.9612 12.4262C61.5112 12.9256 60.9347 13.314 60.2319 13.5914C59.529 13.8638 58.725 14 57.8199 14Z" fill="#F4F7FF"></path><path d="M92.9016 9.63636L90.2066 13.6893C90.1182 13.8222 90.2135 14 90.3732 14L93.3104 14C93.3787 14 93.4423 13.9651 93.479 13.9075L96.1933 9.65197C96.1999 9.64159 96.2057 9.63037 96.2102 9.61895C96.7158 8.35789 96.6923 7.65712 96.2101 6.44144C96.2056 6.43015 96.2 6.41907 96.1935 6.40878L93.4789 2.0935C93.4423 2.03531 93.3783 2 93.3096 2L90.3703 2C90.2113 2 90.1159 2.17668 90.2031 2.30968L92.9016 6.42424C93.7887 7.68333 93.8044 8.37685 92.9016 9.63636Z" fill="#F4F7FF"></path><path d="M100.895 9.63636L103.628 13.6881C103.718 13.821 103.623 14 103.463 14L100.477 14C100.409 14 100.346 13.9656 100.309 13.9087L97.5545 9.65203C97.5478 9.64161 97.5419 9.63034 97.5373 9.61883C97.0243 8.35789 97.0481 7.65713 97.5374 6.44156C97.542 6.43019 97.5477 6.41904 97.5543 6.40871L100.31 2.09239C100.346 2.03483 100.41 2 100.478 2L103.466 2C103.625 2 103.72 2.17788 103.632 2.3108L100.895 6.42424C99.9944 7.68333 99.9785 8.37685 100.895 9.63636Z" fill="#F4F7FF"></path><path d="M65.9983 9.63636L63.3033 13.6893C63.2149 13.8222 63.3102 14 63.4699 14L66.4071 14C66.4754 14 66.539 13.9651 66.5757 13.9075L69.29 9.65197C69.2966 9.64159 69.3023 9.63037 69.3069 9.61895C69.8125 8.35789 69.789 7.65712 69.3068 6.44144C69.3023 6.43015 69.2967 6.41907 69.2902 6.40878L66.5755 2.0935C66.5389 2.03531 66.475 2 66.4063 2L63.467 2C63.308 2 63.2126 2.17668 63.2998 2.30968L65.9983 6.42424C66.8854 7.68333 66.9011 8.37685 65.9983 9.63636Z" fill="#F4F7FF"></path><path d="M73.9912 9.63636L76.7251 13.6881C76.8147 13.821 76.7196 14 76.5593 14L73.574 14C73.5062 14 73.443 13.9656 73.4061 13.9087L70.6512 9.65203C70.6445 9.64161 70.6386 9.63034 70.6339 9.61883C70.121 8.35789 70.1448 7.65713 70.6341 6.44156C70.6387 6.43019 70.6444 6.41904 70.651 6.40871L73.4062 2.09239C73.443 2.03483 73.5065 2 73.5748 2L76.5622 2C76.7219 2 76.8172 2.17788 76.7287 2.3108L73.9912 6.42424C73.0911 7.68333 73.0752 8.37685 73.9912 9.63636Z" fill="#F4F7FF"></path><path d="M42.4585 7.05913V14H39.6777V2.15424H42.3355V4.16709H42.4738C42.7452 3.50386 43.178 2.97686 43.772 2.58612C44.3712 2.19537 45.1111 2 45.992 2C46.8062 2 47.5155 2.17481 48.1198 2.52442C48.7292 2.87404 49.2003 3.38046 49.5332 4.0437C49.8711 4.70694 50.0376 5.51157 50.0325 6.45758V14H47.2517V6.88946C47.2517 6.09769 47.0469 5.47815 46.6372 5.03085C46.2327 4.58355 45.6719 4.3599 44.955 4.3599C44.4685 4.3599 44.0357 4.46787 43.6568 4.6838C43.2829 4.8946 42.9885 5.20051 42.7734 5.60154C42.5634 6.00257 42.4585 6.48843 42.4585 7.05913Z" fill="#F4F7FF"></path><path d="M85.6712 8.94087V2H88.4519V13.8458H85.7941V11.8329H85.6558C85.3844 12.4961 84.9517 13.0231 84.3576 13.4139C83.7585 13.8046 83.0185 14 82.1377 14C81.3234 14 80.6142 13.8252 80.0099 13.4756C79.4005 13.126 78.9293 12.6195 78.5965 11.9563C78.2585 11.2931 78.0921 10.4884 78.0972 9.54242V2H80.8779V9.11054C80.8779 9.90231 81.0827 10.5219 81.4924 10.9692C81.897 11.4165 82.4577 11.6401 83.1747 11.6401C83.6612 11.6401 84.0939 11.5321 84.4729 11.3162C84.8467 11.1054 85.1412 10.7995 85.3562 10.3985C85.5662 9.99743 85.6712 9.51157 85.6712 8.94087Z" fill="#F4F7FF"></path></svg>